<svg xmlns="http://www.w3.org/2000/svg" width="320" height="640" viewBox="0 0 320 640" fill="none"
     role="img" aria-label="Placeholder illustration of the Enersol mobile app">
  <!-- PLACEHOLDER ARTWORK. Replace with a real app screenshot. -->
  <!-- No status bar or keyboard drawn: a real device renders its own on top. -->
  <rect x="34" y="16" width="252" height="600" rx="34" fill="#FFFFFF" stroke="#E5E5E5" stroke-width="2"/>
  <rect x="46" y="28" width="228" height="576" rx="24" fill="#FAFAFA"/>

  <text x="70" y="86" font-family="Inter, system-ui, sans-serif" font-size="17" font-weight="600" fill="#0A0A0A">Your packs</text>
  <text x="70" y="106" font-family="Inter, system-ui, sans-serif" font-size="11" fill="#737373">3 connected</text>

  <g>
    <rect x="66" y="128" width="188" height="76" rx="16" fill="#FFFFFF" stroke="#E5E5E5"/>
    <rect x="80" y="150" width="32" height="32" rx="10" fill="#F5F5F5"/>
    <rect x="87" y="161" width="15" height="10" rx="2.5" stroke="#009DFF" stroke-width="1.8"/>
    <path d="M104.5 164v4" stroke="#009DFF" stroke-width="1.8" stroke-linecap="round"/>
    <text x="122" y="162" font-family="Inter, system-ui, sans-serif" font-size="11" font-weight="500" fill="#0A0A0A">PowerGate</text>
    <text x="122" y="177" font-family="Inter, system-ui, sans-serif" font-size="9" fill="#737373">Discharging</text>
    <text x="238" y="172" text-anchor="end" font-family="Inter, system-ui, sans-serif" font-size="17" font-weight="600" fill="#7AC92C">82%</text>
  </g>

  <g>
    <rect x="66" y="216" width="188" height="76" rx="16" fill="#FFFFFF" stroke="#E5E5E5"/>
    <rect x="80" y="238" width="32" height="32" rx="10" fill="#F5F5F5"/>
    <circle cx="92" cy="259" r="4.5" stroke="#009DFF" stroke-width="1.6"/>
    <circle cx="103" cy="259" r="4.5" stroke="#009DFF" stroke-width="1.6"/>
    <path d="M92 259l5-8h5" stroke="#009DFF" stroke-width="1.6" stroke-linecap="round" stroke-linejoin="round"/>
    <text x="122" y="250" font-family="Inter, system-ui, sans-serif" font-size="11" font-weight="500" fill="#0A0A0A">City bike</text>
    <text x="122" y="265" font-family="Inter, system-ui, sans-serif" font-size="9" fill="#737373">Charging</text>
    <text x="238" y="260" text-anchor="end" font-family="Inter, system-ui, sans-serif" font-size="17" font-weight="600" fill="#009DFF">61%</text>
  </g>

  <g>
    <rect x="66" y="304" width="188" height="76" rx="16" fill="#FFFFFF" stroke="#E5E5E5"/>
    <rect x="80" y="326" width="32" height="32" rx="10" fill="#F5F5F5"/>
    <path d="M96 334v12a4 4 0 1 1-4 0v-12a2 2 0 0 1 4 0z" stroke="#009DFF" stroke-width="1.6"/>
    <text x="122" y="338" font-family="Inter, system-ui, sans-serif" font-size="11" font-weight="500" fill="#0A0A0A">Pack temp.</text>
    <text x="122" y="353" font-family="Inter, system-ui, sans-serif" font-size="9" fill="#737373">Within 2 °C</text>
    <text x="238" y="348" text-anchor="end" font-family="Inter, system-ui, sans-serif" font-size="15" font-weight="600" fill="#0A0A0A">34 °C</text>
  </g>

  <rect x="66" y="404" width="188" height="112" rx="16" fill="#FFFFFF" stroke="#E5E5E5"/>
  <text x="80" y="428" font-family="Inter, system-ui, sans-serif" font-size="9" letter-spacing="1" fill="#737373">LAST 7 DAYS</text>
  <g stroke="#009DFF" stroke-width="2.5" stroke-linecap="round">
    <path d="M84 494v-22"/><path d="M104 494v-36"/><path d="M124 494v-28"/><path d="M144 494v-44"/>
    <path d="M164 494v-31"/><path d="M184 494v-49"/><path d="M204 494v-38"/>
  </g>
  <path d="M84 500h152" stroke="#E5E5E5" stroke-width="1.5"/>

  <text x="160" y="556" text-anchor="middle" font-family="Inter, system-ui, sans-serif"
        font-size="10" letter-spacing="1.4" fill="#A3A3A3">SCREENSHOT PENDING</text>
</svg>
